<svg width="300" height="600" viewBox="0 0 390 844" fill="none" xmlns="http://www.w3.org/2000/svg">
<g clip-path="url(#clip0_12_44)">
<rect width="390" height="844" fill="#0D0A1B"/>
<path d="M169.424 93.9638C173.541 89.8466 157.416 27.4017 157.416 27.4017L175.6 67.5448C187.609 91.9052 195.843 88.131 202.019 70.6328L214.714 37.3517L211.969 70.9759C210.94 84.3569 214.714 92.5914 231.183 74.75L261.376 45.5862L237.359 81.9552C231.869 91.9052 221.919 107.688 254.514 101.169L289.167 96.7086L258.288 111.462C239.417 116.952 233.928 125.529 252.112 132.391L284.707 149.203L247.995 144.4C230.497 141.312 240.79 150.233 261.033 171.848L286.079 198.953L250.74 172.878C225.007 151.262 212.655 149.89 227.066 183.514L237.359 219.883L219.174 189.003C209.567 172.878 201.333 153.321 194.128 184.886L183.491 224L186.922 171.505C188.295 158.124 180.747 158.467 171.826 168.074L141.29 195.522L161.533 164.643C176.286 142.341 160.503 144.743 137.516 148.174L102.176 152.291L132.026 140.969C158.102 132.391 158.788 127.931 146.436 121.069L111.097 107.002L137.516 109.403C150.897 110.433 166.679 112.834 143.348 89.5034L104.921 51.419C104.921 51.419 162.905 100.483 169.424 93.9638Z" fill="url(#paint0_radial_12_44)"/>
<path d="M41.6125 30.4166C40.8424 25.5238 41.5764 20.1931 41.6637 15.2609C41.6324 17.0284 42.2345 19.223 42.6481 20.9399C43.0679 22.6827 42.7962 24.4244 43.3365 26.1812C44.2101 29.0219 43.6411 32.1333 44.1344 35.0416C44.5576 37.5368 44.4637 40.5105 46.8524 42.0684C48.5916 43.2026 50.8544 43.7723 52.8882 44.2983C54.8414 44.8034 60.9099 45.3248 58.8809 45.2889C56.6552 45.2495 53.7985 45.8035 52.1206 47.2138C48.0885 50.6029 48.2836 54.9551 49.2753 59.6465C49.7819 62.0431 50.9315 69.29 50.4925 66.8826C49.8982 63.6231 48.55 60.4011 47.953 57.1265C47.2837 53.4563 44.8418 49.0709 41.097 47.294C37.0635 45.3801 32.1243 46.5848 27.8321 46.5088C25.4468 46.4666 26.3506 46.3018 27.846 45.7227C29.2108 45.1943 30.7134 44.8425 32.163 44.541C34.9417 43.9631 38.2358 43.3236 40.5873 41.7609C44.1418 39.399 42.0969 33.4935 41.6125 30.4166Z" fill="white" stroke="white" stroke-width="3" stroke-linecap="round"/>
<path d="M326.952 269.749C332.3 264.994 336.076 277.313 325.958 271.957C325.038 271.47 324.306 269.749 325.958 269.749C327.674 269.749 326.673 272.009 326.179 271.515C324.993 270.329 326.913 269.423 327.945 269.969C328.751 270.396 329.387 273.502 328.884 271.239C328.108 267.749 327.491 264.428 326.896 260.861C325.837 254.504 326.891 260.183 328.166 264.007C329.243 267.237 328.353 270.666 329.712 273.723C330.665 275.868 330.926 279.796 330.926 282.169C330.926 287.523 330.926 282.958 330.926 280.182C330.926 277.532 330.926 274.883 330.926 272.233C330.926 269.755 326.319 270.742 324.468 270.742C322.817 270.742 317.762 270.727 318.009 270.742C325.329 271.2 332.829 271.736 340.366 271.736C345.303 271.736 340.022 270.742 337.882 270.742C335.388 270.742 332.811 269.749 329.933 269.749" stroke="white" stroke-width="3" stroke-linecap="round"/>
<path d="M341.952 79.7486C347.3 74.9943 351.076 87.3135 340.958 81.9567C340.038 81.4697 339.306 79.7486 340.958 79.7486C342.674 79.7486 341.673 82.0093 341.179 81.5151C339.993 80.3291 341.913 79.4229 342.945 79.9694C343.751 80.3958 344.387 83.502 343.884 81.2391C343.108 77.749 342.491 74.4279 341.896 70.8609C340.837 64.5039 341.891 70.1833 343.166 74.0075C344.243 77.2372 343.353 80.6658 344.712 83.7233C345.665 85.8684 345.926 89.7959 345.926 92.1694C345.926 97.5232 345.926 92.9583 345.926 90.182C345.926 87.5323 345.926 84.8825 345.926 82.2328C345.926 79.7546 341.319 80.7423 339.468 80.7423C337.817 80.7423 332.762 80.7268 333.009 80.7423C340.329 81.1998 347.829 81.7359 355.366 81.7359C360.303 81.7359 355.022 80.7423 352.882 80.7423C350.388 80.7423 347.811 79.7486 344.933 79.7486" stroke="white" stroke-width="3" stroke-linecap="round"/>
<path d="M119.952 437.749C125.3 432.994 129.076 445.313 118.958 439.957C118.038 439.47 117.306 437.749 118.958 437.749C120.674 437.749 119.673 440.009 119.179 439.515C117.993 438.329 119.913 437.423 120.945 437.969C121.751 438.396 122.387 441.502 121.884 439.239C121.108 435.749 120.491 432.428 119.896 428.861C118.837 422.504 119.891 428.183 121.166 432.007C122.243 435.237 121.353 438.666 122.712 441.723C123.665 443.868 123.926 447.796 123.926 450.169C123.926 455.523 123.926 450.958 123.926 448.182C123.926 445.532 123.926 442.883 123.926 440.233C123.926 437.755 119.319 438.742 117.468 438.742C115.817 438.742 110.762 438.727 111.009 438.742C118.329 439.2 125.829 439.736 133.366 439.736C138.303 439.736 133.022 438.742 130.882 438.742C128.388 438.742 125.811 437.749 122.933 437.749" stroke="white" stroke-width="3" stroke-linecap="round"/>
<path d="M68.9517 663.749C74.3003 658.994 78.0763 671.313 67.958 665.957C67.0382 665.47 66.3055 663.749 67.958 663.749C69.6743 663.749 68.6731 666.009 68.1789 665.515C66.9928 664.329 68.9129 663.423 69.9454 663.969C70.7507 664.396 71.3867 667.502 70.8838 665.239C70.1082 661.749 69.491 658.428 68.8965 654.861C67.837 648.504 68.8915 654.183 70.1662 658.007C71.2428 661.237 70.353 664.666 71.7119 667.723C72.6653 669.868 72.9263 673.796 72.9263 676.169C72.9263 681.523 72.9263 676.958 72.9263 674.182C72.9263 671.532 72.9263 668.883 72.9263 666.233C72.9263 663.755 68.3188 664.742 66.4675 664.742C64.8174 664.742 59.7616 664.727 60.0088 664.742C67.3287 665.2 74.8295 665.736 82.3661 665.736C87.3028 665.736 82.0223 664.742 79.882 664.742C77.3884 664.742 74.8111 663.749 71.9327 663.749" stroke="white" stroke-width="3" stroke-linecap="round"/>
<rect x="-1.5" y="1.5" width="357" height="811" rx="100.5" transform="matrix(-1 0 0 1 372 15)" stroke="#F5F5F5" stroke-width="3"/>
<path d="M64 157L64.6257 174.11C65.0085 184.579 73.296 192.974 83.6247 193.356L101 194L83.6247 194.644C73.296 195.026 65.0085 203.421 64.6257 213.89L64 231L63.3743 213.89C62.9915 203.421 54.704 195.026 44.3753 194.644L27 194L44.3753 193.356C54.704 192.974 62.9915 184.579 63.3743 174.11L64 157Z" fill="white"/>
<path d="M242 513L242.626 530.11C243.008 540.579 251.296 548.974 261.625 549.356L279 550L261.625 550.644C251.296 551.026 243.008 559.421 242.626 569.89L242 587L241.374 569.89C240.992 559.421 232.704 551.026 222.375 550.644L205 550L222.375 549.356C232.704 548.974 240.992 540.579 241.374 530.11L242 513Z" fill="white"/>
<path d="M345 665L345.406 676.561C345.654 683.634 351.03 689.307 357.73 689.565L369 690L357.73 690.435C351.03 690.693 345.654 696.366 345.406 703.439L345 715L344.594 703.439C344.346 696.366 338.97 690.693 332.27 690.435L321 690L332.27 689.565C338.97 689.307 344.346 683.634 344.594 676.561L345 665Z" fill="white"/>
<path d="M128.5 746L128.948 760.105C129.222 768.734 135.158 775.654 142.556 775.969L155 776.5L142.556 777.031C135.158 777.346 129.222 784.266 128.948 792.895L128.5 807L128.052 792.895C127.778 784.266 121.842 777.346 114.444 777.031L102 776.5L114.444 775.969C121.842 775.654 127.778 768.734 128.052 760.105L128.5 746Z" fill="white"/>
<path fill-rule="evenodd" clip-rule="evenodd" d="M320.52 594C327.083 595.052 332.246 599.382 333.5 604.886C334.754 599.382 339.917 595.052 346.48 594C339.917 592.948 334.754 588.618 333.5 583.114C332.246 588.618 327.083 592.948 320.52 594ZM318 593.764C326.279 593.515 332.921 587.943 333.219 581H333.781C334.079 587.943 340.721 593.515 349 593.764V594.236C340.721 594.485 334.079 600.057 333.781 607H333.219C332.921 600.057 326.279 594.485 318 594.236V593.764Z" fill="white"/>
<path fill-rule="evenodd" clip-rule="evenodd" d="M45.5203 751C52.0826 752.052 57.2458 756.382 58.5 761.886C59.7542 756.382 64.9174 752.052 71.4797 751C64.9174 749.948 59.7542 745.618 58.5 740.114C57.2458 745.618 52.0826 749.948 45.5203 751ZM43 750.764C51.2788 750.515 57.9214 744.943 58.2185 738H58.7815C59.0786 744.943 65.7212 750.515 74 750.764V751.236C65.7212 751.485 59.0786 757.057 58.7815 764H58.2185C57.9214 757.057 51.2788 751.485 43 751.236V750.764Z" fill="white"/>
<path fill-rule="evenodd" clip-rule="evenodd" d="M98.5203 334C105.083 335.052 110.246 339.382 111.5 344.886C112.754 339.382 117.917 335.052 124.48 334C117.917 332.948 112.754 328.618 111.5 323.114C110.246 328.618 105.083 332.948 98.5203 334ZM96 333.764C104.279 333.515 110.921 327.943 111.219 321H111.781C112.079 327.943 118.721 333.515 127 333.764V334.236C118.721 334.485 112.079 340.057 111.781 347H111.219C110.921 340.057 104.279 334.485 96 334.236V333.764Z" fill="white"/>
<path fill-rule="evenodd" clip-rule="evenodd" d="M292.52 461C299.083 462.052 304.246 466.382 305.5 471.886C306.754 466.382 311.917 462.052 318.48 461C311.917 459.948 306.754 455.618 305.5 450.114C304.246 455.618 299.083 459.948 292.52 461ZM290 460.764C298.279 460.515 304.921 454.943 305.219 448H305.781C306.079 454.943 312.721 460.515 321 460.764V461.236C312.721 461.485 306.079 467.057 305.781 474H305.219C304.921 467.057 298.279 461.485 290 461.236V460.764Z" fill="white"/>
<path fill-rule="evenodd" clip-rule="evenodd" d="M186.52 272C193.083 273.052 198.246 277.382 199.5 282.886C200.754 277.382 205.917 273.052 212.48 272C205.917 270.948 200.754 266.618 199.5 261.114C198.246 266.618 193.083 270.948 186.52 272ZM184 271.764C192.279 271.515 198.921 265.943 199.219 259H199.781C200.079 265.943 206.721 271.515 215 271.764V272.236C206.721 272.485 200.079 278.057 199.781 285H199.219C198.921 278.057 192.279 272.485 184 272.236V271.764Z" fill="white"/>
<path fill-rule="evenodd" clip-rule="evenodd" d="M266.52 770.5C273.083 771.026 278.246 773.191 279.5 775.943C280.754 773.191 285.917 771.026 292.48 770.5C285.917 769.974 280.754 767.809 279.5 765.057C278.246 767.809 273.083 769.974 266.52 770.5ZM264 770.382C272.279 770.257 278.921 767.472 279.219 764H279.781C280.079 767.472 286.721 770.257 295 770.382V770.618C286.721 770.743 280.079 773.528 279.781 777H279.219C278.921 773.528 272.279 770.743 264 770.618V770.382Z" fill="white"/>
<path fill-rule="evenodd" clip-rule="evenodd" d="M29.5203 359.5C36.0826 360.026 41.2458 362.191 42.5 364.943C43.7542 362.191 48.9174 360.026 55.4797 359.5C48.9174 358.974 43.7542 356.809 42.5 354.057C41.2458 356.809 36.0826 358.974 29.5203 359.5ZM27 359.382C35.2788 359.257 41.9214 356.472 42.2185 353H42.7815C43.0786 356.472 49.7212 359.257 58 359.382V359.618C49.7212 359.743 43.0786 362.528 42.7815 366H42.2185C41.9214 362.528 35.2788 359.743 27 359.618V359.382Z" fill="white"/>
<path fill-rule="evenodd" clip-rule="evenodd" d="M178.252 472.5C186.72 474.078 193.382 480.573 195 488.829C196.618 480.573 203.28 474.078 211.748 472.5C203.28 470.922 196.618 464.427 195 456.171C193.382 464.427 186.72 470.922 178.252 472.5ZM175 472.146C185.682 471.772 194.253 463.415 194.637 453H195.363C195.747 463.415 204.318 471.772 215 472.146V472.854C204.318 473.228 195.747 481.585 195.363 492H194.637C194.253 481.585 185.682 473.228 175 472.854V472.146Z" fill="white"/>
<path fill-rule="evenodd" clip-rule="evenodd" d="M250.52 360C257.083 361.052 262.246 365.382 263.5 370.886C264.754 365.382 269.917 361.052 276.48 360C269.917 358.948 264.754 354.618 263.5 349.114C262.246 354.618 257.083 358.948 250.52 360ZM248 359.764C256.279 359.515 262.921 353.943 263.219 347H263.781C264.079 353.943 270.721 359.515 279 359.764V360.236C270.721 360.485 264.079 366.057 263.781 373H263.219C262.921 366.057 256.279 360.485 248 360.236V359.764Z" fill="white"/>
<path fill-rule="evenodd" clip-rule="evenodd" d="M81.3008 593.5C84.6878 594.026 87.3526 596.191 88 598.943C88.6474 596.191 91.3122 594.026 94.6992 593.5C91.3122 592.974 88.6474 590.809 88 588.057C87.3526 590.809 84.6878 592.974 81.3008 593.5ZM80 593.382C84.2729 593.257 87.7014 590.472 87.8547 587H88.1453C88.2986 590.472 91.7271 593.257 96 593.382V593.618C91.7271 593.743 88.2986 596.528 88.1453 600H87.8547C87.7014 596.528 84.2729 593.743 80 593.618V593.382Z" fill="white"/>
<path fill-rule="evenodd" clip-rule="evenodd" d="M45.6016 492C52.3756 493.457 57.7053 499.452 59 507.073C60.2947 499.452 65.6244 493.457 72.3984 492C65.6244 490.543 60.2947 484.548 59 476.927C57.7053 484.548 52.3756 490.543 45.6016 492ZM43 491.673C51.5458 491.328 58.4027 483.614 58.7095 474H59.2905C59.5973 483.614 66.4542 491.328 75 491.673V492.327C66.4542 492.672 59.5973 500.386 59.2905 510H58.7095C58.4027 500.386 51.5458 492.672 43 492.327V491.673Z" fill="white"/>
<path d="M221.5 693L222.016 707.567C222.331 716.479 229.163 723.626 237.677 723.952L252 724.5L237.677 725.048C229.163 725.374 222.331 732.521 222.016 741.433L221.5 756L220.984 741.433C220.669 732.521 213.837 725.374 205.323 725.048L191 724.5L205.323 723.952C213.837 723.626 220.669 716.479 220.984 707.567L221.5 693Z" fill="white"/>
<path d="M236.547 697.22L230.035 710.105C226.051 717.989 228.554 727.754 235.772 732.492L247.914 740.463L235.248 733.441C227.719 729.267 218.389 731.881 213.858 739.434L206.453 751.78L212.965 738.894C216.949 731.011 214.446 721.246 207.228 716.508L195.086 708.537L207.752 715.559C215.281 719.733 224.611 717.119 229.142 709.566L236.547 697.22Z" fill="white"/>
<path d="M247.562 708.75L235.767 716.501C228.552 721.243 226.054 731.01 230.042 738.891L236.75 752.148L229.135 739.439C224.609 731.883 215.279 729.264 207.748 733.434L195.438 740.25L207.233 732.499C214.448 727.757 216.946 717.99 212.958 710.109L206.25 696.852L213.865 709.561C218.391 717.117 227.721 719.736 235.252 715.566L247.562 708.75Z" fill="white"/>
<path d="M120.332 592.096H142.76V616.036H138.764V595.588H124.292V616.036H120.332V592.096ZM165.953 607.036C165.953 607.54 165.917 608.044 165.809 608.548H148.709C149.465 611.14 152.093 613.048 155.225 613.048C157.241 613.048 159.005 612.256 160.265 611.032H164.945C163.253 614.272 159.545 616.504 155.225 616.504C149.321 616.504 144.533 612.292 144.533 607.036C144.533 601.816 149.321 597.568 155.225 597.568C160.589 597.568 165.017 601.024 165.809 605.56C165.917 606.028 165.953 606.532 165.953 607.036ZM150.041 605.56H161.741C161.021 602.968 158.357 601.06 155.225 601.06C152.309 601.06 149.789 602.752 148.889 605.056C148.781 605.344 148.637 605.632 148.457 605.884L147.773 606.892L148.241 607.18L148.925 606.136C149.177 605.776 149.573 605.56 150.041 605.56ZM178.055 597.604C183.995 597.604 188.783 601.852 188.783 607.072C188.783 612.328 185.003 616.54 180.323 616.54C175.643 616.54 171.827 612.76 171.827 608.08H175.823C175.823 610.816 177.839 613.084 180.323 613.084C182.771 613.084 184.787 610.384 184.787 607.072C184.787 603.796 181.799 601.096 178.055 601.096C174.347 601.096 171.323 603.796 171.323 607.072V622.048H167.363V598.108H171.323V598.36C171.323 598.9 171.215 599.476 170.999 599.98L170.099 601.996L170.567 602.212L171.287 600.628C171.683 599.692 172.439 598.972 173.339 598.576C174.779 597.964 176.363 597.604 178.055 597.604ZM211.058 607.036C211.058 607.54 211.022 608.044 210.914 608.548H193.814C194.57 611.14 197.198 613.048 200.33 613.048C202.346 613.048 204.11 612.256 205.37 611.032H210.05C208.358 614.272 204.65 616.504 200.33 616.504C194.426 616.504 189.638 612.292 189.638 607.036C189.638 601.816 194.426 597.568 200.33 597.568C205.694 597.568 210.122 601.024 210.914 605.56C211.022 606.028 211.058 606.532 211.058 607.036ZM195.146 605.56H206.846C206.126 602.968 203.462 601.06 200.33 601.06C197.414 601.06 194.894 602.752 193.994 605.056C193.886 605.344 193.742 605.632 193.562 605.884L192.878 606.892L193.346 607.18L194.03 606.136C194.282 605.776 194.678 605.56 195.146 605.56ZM225.357 595.084H218.373V592.096H225.357V595.084ZM227.337 598.072H231.333V616.036H227.337V604.552C227.337 604.12 227.409 603.688 227.553 603.292L228.093 601.636L227.589 601.492L227.121 602.86C226.941 603.364 226.725 603.796 226.365 604.192L216.357 616.036H212.397V598.072H216.357V609.556C216.357 609.988 216.285 610.384 216.177 610.816L215.601 612.436L216.105 612.616L216.573 611.212C216.753 610.744 217.005 610.276 217.329 609.916L227.337 598.072ZM232.201 598.072H251.137V601.06H243.649V616.036H239.653V601.06H232.201V598.072ZM267.03 598.072H271.026V616.036H267.03V604.552C267.03 604.12 267.102 603.688 267.246 603.292L267.786 601.636L267.282 601.492L266.814 602.86C266.634 603.364 266.418 603.796 266.058 604.192L256.05 616.036H252.09V598.072H256.05V609.556C256.05 609.988 255.978 610.384 255.87 610.816L255.294 612.436L255.798 612.616L256.266 611.212C256.446 610.744 256.698 610.276 257.022 609.916L267.03 598.072Z" fill="#0D0A1B"/>
</g>
<defs>
<radialGradient id="paint0_radial_12_44" cx="0" cy="0" r="1" gradientUnits="userSpaceOnUse" gradientTransform="translate(195.788 125.942) rotate(-46.5405) scale(135.756 142.731)">
<stop stop-color="#EADFC4"/>
</radialGradient>
<clipPath id="clip0_12_44">
<rect width="390" height="844" fill="white"/>
</clipPath>
</defs>
</svg>
